<?xml version="1.0" encoding="UTF-8" standalone="no"?>
<svg
   width="192"
   height="17"
   viewBox="0 0 192 17"
   fill="none"
   version="1.1"
   id="svg1"
   sodipodi:docname="formation-logo-text.svg"
   inkscape:version="1.4.2 (ebf0e940, 2025-05-08)"
   xmlns:inkscape="http://www.inkscape.org/namespaces/inkscape"
   xmlns:sodipodi="http://sodipodi.sourceforge.net/DTD/sodipodi-0.dtd"
   xmlns="http://www.w3.org/2000/svg"
   xmlns:svg="http://www.w3.org/2000/svg"
   xmlns:rdf="http://www.w3.org/1999/02/22-rdf-syntax-ns#"
   xmlns:cc="http://creativecommons.org/ns#"
   xmlns:dc="http://purl.org/dc/elements/1.1/">
  <title
     id="title1">FORMATION Gmbh</title>
  <defs
     id="defs1" />
  <sodipodi:namedview
     id="namedview1"
     pagecolor="#505050"
     bordercolor="#eeeeee"
     borderopacity="1"
     inkscape:showpageshadow="0"
     inkscape:pageopacity="0"
     inkscape:pagecheckerboard="0"
     inkscape:deskcolor="#505050"
     showgrid="false"
     inkscape:zoom="6.1614583"
     inkscape:cx="96"
     inkscape:cy="8.4395604"
     inkscape:window-width="2056"
     inkscape:window-height="1257"
     inkscape:window-x="0"
     inkscape:window-y="44"
     inkscape:window-maximized="1"
     inkscape:current-layer="svg1" />
  <g
     id="formation-logo-text">
    <path
       id="Union"
       fill-rule="evenodd"
       clip-rule="evenodd"
       d="M 27.6787,16.7471 C 26.5459,16.761 25.4218,16.547 24.3735,16.118 23.4042,15.7194 22.5266,15.1265 21.7954,14.3752 21.0684,13.6219 20.4955,12.734 20.1093,11.761 c -0.8116,-2.09654 -0.8116,-4.42097 0,-6.5175 0.3878,-0.97401 0.9601,-1.86347 1.6861,-2.61937 0.7317,-0.7492 1.6088,-1.34062 2.5781,-1.737654 2.1224,-0.8456236 4.488,-0.8456236 6.6103,0 0.9694,0.397034 1.8465,0.988454 2.5782,1.737654 0.726,0.75487 1.2973,1.64484 1.6809,2.61937 0.8178,2.0955 0.8178,4.42199 0,6.5175 -0.3826,0.9735 -0.9539,1.8619 -1.6809,2.6142 -0.7312,0.7513 -1.6088,1.3442 -2.5782,1.7428 -1.0482,0.429 -2.1723,0.643 -3.3051,0.6291 z m 0,-1.9955 c 2.4621,0.0376 4.6736,-1.4999 5.4965,-3.8208 0.5636,-1.57004 0.5636,-3.28707 0,-4.85715 C 32.9118,5.33941 32.5055,4.66445 31.979,4.0885 29.7659,1.71354 26.0462,1.58257 23.6713,3.79563 23.5702,3.88999 23.4728,3.98744 23.3784,4.0885 22.8504,4.66445 22.442,5.33889 22.177,6.07365 c -0.5569,1.57111 -0.5569,3.28608 0,4.85715 0.265,0.7333 0.6734,1.4061 1.2014,1.98 1.1019,1.2035 2.6689,1.8743 4.3003,1.8408 z M 0,0.654434 H 9.86904 V 2.6499 H 2.13468 V 7.56895 H 9.35342 V 9.56442 H 2.13468 V 16.35 H 0 Z m 52.2018,1e-5 H 46.6794 V 16.3655 H 48.809 V 9.44583 h 2.3718 l 3.991,6.91967 h 2.6657 L 53.3826,9.20349 C 53.9436,9.15451 54.4886,8.99312 54.9861,8.72912 55.4456,8.48368 55.8586,8.1609 56.2082,7.77521 56.5366,7.40345 56.795,6.97548 56.9713,6.51193 57.1497,6.04787 57.241,5.55493 57.2394,5.05787 57.2363,4.53451 57.1616,4.01425 57.0177,3.511 56.8656,2.98455 56.5959,2.49986 56.2288,2.09304 55.7952,1.6398 55.2672,1.28763 54.6819,1.06179 53.8899,0.764272 53.0474,0.626085 52.2018,0.654444 Z M 51.6037,7.56896 H 48.809 V 2.53647 h 2.7947 c 0.4109,-0.00103 0.8213,0.03197 1.2271,0.09797 0.3811,0.0593 0.7487,0.18305 1.088,0.36609 0.3192,0.17996 0.5832,0.44396 0.7631,0.76313 0.3754,0.81829 0.3754,1.75982 0,2.57812 -0.182,0.31762 -0.4455,0.58111 -0.7631,0.76312 -0.3393,0.18305 -0.7069,0.3068 -1.088,0.36609 -0.4058,0.066 -0.8162,0.099 -1.2271,0.09797 z M 67.8304,0.654434 h 3.171 L 75.9927,12.5138 h 0.0876 L 81.0252,0.654434 h 3.1711 V 16.35 H 82.0667 V 3.45943 H 82.0203 L 76.7249,16.35 H 75.2811 L 69.9857,3.45943 H 69.9393 V 16.35 h -2.1296 z m 34.8566,0 h -1.929 L 93.8436,16.35 h 2.4853 l 1.5468,-3.8826 h 7.4563 l 1.572,3.8826 h 2.486 z m -1.042,2.758586 2.924,7.21878 h -5.9611 l 2.9701,-7.21878 z m 18.8,-0.76312 h -5.053 V 0.654434 h 12.235 V 2.6499 h -5.053 V 16.35 h -2.129 z m 19.356,-1.995466 h -2.129 V 16.35 h 2.129 z m 18.98,16.092666 c -1.133,0.0144 -2.257,-0.1996 -3.305,-0.6291 -0.969,-0.3986 -1.847,-0.9915 -2.578,-1.7428 -0.727,-0.7533 -1.3,-1.6412 -1.686,-2.6142 -0.812,-2.09654 -0.812,-4.42097 0,-6.5175 0.388,-0.97401 0.96,-1.86347 1.686,-2.61937 0.732,-0.7492 1.609,-1.34062 2.578,-1.737654 2.12,-0.8456236 4.485,-0.8456236 6.605,0 0.97,0.397034 1.847,0.988454 2.578,1.737654 0.726,0.7559 1.299,1.64536 1.686,2.61937 0.812,2.09653 0.812,4.42096 0,6.5175 -0.386,0.973 -0.959,1.8609 -1.686,2.6142 -0.731,0.7513 -1.608,1.3442 -2.578,1.7428 -1.046,0.429 -2.168,0.643 -3.3,0.6291 z m 0,-1.9955 c 1.632,0.0335 3.199,-0.6373 4.301,-1.8408 0.524,-0.5754 0.93,-1.2483 1.196,-1.98 0.563,-1.57004 0.563,-3.28707 0,-4.85715 -0.266,-0.73321 -0.672,-1.40765 -1.196,-1.98515 -1.105,-1.19934 -2.67,-1.86914 -4.301,-1.84078 -1.632,-0.02732 -3.198,0.64247 -4.305,1.84078 -0.525,0.5775 -0.931,1.25194 -1.196,1.98515 -0.557,1.57111 -0.557,3.28608 0,4.85715 0.265,0.7317 0.671,1.4046 1.196,1.98 1.103,1.205 2.672,1.8759 4.305,1.8408 z M 180.577,0.654434 h -2.795 V 16.35 h 2.13 V 3.45943 h 0.041 L 188.687,16.35 h 2.708 V 0.654434 h -2.13 V 13.545 h -0.046 z"
       fill="#000000" />
  </g>
  <metadata
     id="metadata1">
    <rdf:RDF>
      <cc:Work
         rdf:about="">
        <dc:title>FORMATION Gmbh</dc:title>
        <dc:rights>
          <cc:Agent>
            <dc:title>Copyright FORMATION Gmbh 2020-present</dc:title>
          </cc:Agent>
        </dc:rights>
      </cc:Work>
    </rdf:RDF>
  </metadata>
</svg>
