<svg xmlns="http://www.w3.org/2000/svg" width="100" height="100" viewBox="0 0 100 100">
  <defs>
    <clipPath id="rounded-tile">
      <rect x="0" y="0" width="100" height="100" rx="16" ry="16"/>
    </clipPath>
  </defs>

  <g clip-path="url(#rounded-tile)">
    <rect x="0" y="0" width="100" height="100" fill="white"/>

    <svg x="10" y="11" width="80" height="78" viewBox="-30 -10 420 410">
      <defs>
        <mask id="mTop" maskUnits="userSpaceOnUse">
          <rect x="-30" y="-10" width="420" height="410" fill="white"/>
          <path d="M 163.943 248.921 A 120.000 120.000 0 0 1 103.226 222.227" fill="none" stroke="black" stroke-width="28" stroke-linecap="round"/>
          <path d="M 299.257 116.671 A 120.000 120.000 0 0 1 288.121 182.055" fill="none" stroke="black" stroke-width="28" stroke-linecap="round"/>
        </mask>

        <mask id="mLeft" maskUnits="userSpaceOnUse">
          <rect x="-30" y="-10" width="420" height="410" fill="white"/>
          <path d="M 33.226 167.773 A 120.000 120.000 0 0 1 93.943 141.079" fill="none" stroke="black" stroke-width="28" stroke-linecap="round"/>
          <path d="M 218.121 207.945 A 120.000 120.000 0 0 1 229.257 273.329" fill="none" stroke="black" stroke-width="28" stroke-linecap="round"/>
        </mask>

        <mask id="mRight" maskUnits="userSpaceOnUse">
          <rect x="-30" y="-10" width="420" height="410" fill="white"/>
          <path d="M 209.662 373.017 A 120.000 120.000 0 0 1 155.790 334.327" fill="none" stroke="black" stroke-width="28" stroke-linecap="round"/>
          <path d="M 155.790 185.673 A 120.000 120.000 0 0 1 209.662 146.983" fill="none" stroke="black" stroke-width="28" stroke-linecap="round"/>
        </mask>
      </defs>

      <g fill="none" stroke="#000" stroke-linecap="round" stroke-linejoin="round">
        <circle cx="180" cy="130" r="120" stroke-width="18" mask="url(#mTop)"/>
        <circle cx="110" cy="260" r="120" stroke-width="18" mask="url(#mLeft)"/>
        <circle cx="250" cy="260" r="120" stroke-width="18" mask="url(#mRight)"/>

        <path d="M 163.943 248.921 A 120.000 120.000 0 0 1 103.226 222.227" stroke-width="12" stroke-dasharray="18 18"/>
        <path d="M 299.257 116.671 A 120.000 120.000 0 0 1 288.121 182.055" stroke-width="12" stroke-dasharray="18 18"/>

        <path d="M 33.226 167.773 A 120.000 120.000 0 0 1 93.943 141.079" stroke-width="12" stroke-dasharray="18 18"/>
        <path d="M 218.121 207.945 A 120.000 120.000 0 0 1 229.257 273.329" stroke-width="12" stroke-dasharray="18 18"/>

        <path d="M 209.662 373.017 A 120.000 120.000 0 0 1 155.790 334.327" stroke-width="12" stroke-dasharray="18 18"/>
        <path d="M 155.790 185.673 A 120.000 120.000 0 0 1 209.662 146.983" stroke-width="12" stroke-dasharray="18 18"/>
      </g>
    </svg>
  </g>
</svg>
